<svg xmlns="http://www.w3.org/2000/svg" viewBox="0 0 100 100" fill="currentColor"><path d="M32 46 32 48 29 50 29 47ZM43 13 44 8 47 6 49 10 56 16 55 17 52 14 50 13 47 13 46 12 46 13ZM66 26 60 32 57 32 54 34 52 33 49 35 43 33 40 28 38 26 37 26 37 25 38 25 39 20 42 17 43 13 46 13 46 12 47 13 50 13 53 15 55 17 54 19 54 20 56 20 55 21 58 23ZM49 51 46 49 46 47 38 43 38 41 41 38 39 33 41 31 42 31 43 33 44 33 47 34 49 35 52 33 54 34 52 36 52 43 53 45 51 46ZM69 66 71 72 70 73 70 72 69 72 69 75 64 90 61 92 58 91 57 86 57 83 58 83 59 80 58 76 59 73 63 72 65 70 66 68 67 69 68 65ZM36 60 38 60 39 61 40 68 42 70 42 73 41 74 39 73 39 70 36 68 37 66 37 64 38 62ZM85 82 84 82 85 81ZM40 64 45 64 51 62 52 70 49 74 45 76 40 80 40 82 42 85 41 89 37 91 36 92 36 94 35 94 35 89 33 85 36 81 36 74 33 73 31 73 31 71 37 69 39 70 39 73 41 74 42 73 42 70 40 68 39 66ZM32 44 32 46 31 46 30 47 29 47 29 45ZM53 45 52 43 52 36 54 33 56 33 57 32 60 32 68 23 68 19 72 18 71 23 67 31 63 36 56 41ZM38 43 46 47 46 49 49 51 48 53 48 54 49 55 49 58 51 62 49 63 43 64 40 64 38 60 32 58 30 54 29 50 32 48 32 46 32 45 32 44ZM38 43 30 44 31 40 33 37 32 37 32 34 33 34 37 34 39 33 40 34 41 38 38 41ZM55 17 56 16 57 17 57 18 56 18 56 19 56 20 54 20 54 19ZM32 58 37 60 37 66 36 68 37 69 31 71 31 72 29 73 25 77 20 76 17 76 15 73 15 67 19 67 19 63 22 64 22 65 25 64 29 67 30 67 30 65 29 66 28 65 28 59 29 58ZM33 85 30 85 27 84 26 82 23 79 22 76 25 77 29 73 31 72 31 73 33 73 36 74 36 81Z"/></svg>