<svg xmlns="http://www.w3.org/2000/svg" viewBox="0 0 100 100" fill="currentColor"><path d="M20 39 20 37 32 31 30 26 32 26 47 24 45 28 49 36 48 41 53 46 43 52 39 53ZM38 74 37 74 35 67 38 64 40 67ZM25 67 27 62 32 60 34 60 35 63 37 63 35 66 29 66 29 68ZM21 67 29 68 29 76 22 77 22 75 20 74ZM92 48 73 48 73 32 87 33 89 36 87 38 84 35 89 46ZM34 66 35 74 29 76 29 66ZM12 63 19 64 21 67 21 72 19 72 18 70 17 70 16 68 13 70 10 66ZM7 64 12 63 12 65 10 66ZM20 72 22 77 16 73 18 70 19 72ZM73 48 73 51 71 52 59 46 56 47 50 44 48 41 49 33 52 30 64 34 66 30 73 32ZM16 64 15 59 25 59 24 43 26 43 39 53 40 53 39 59 32 60 27 62 25 67 21 67 19 64ZM30 26 32 31 20 37 20 40 16 40 11 49 7 49 11 41 19 35 20 30 24 25ZM7 50 13 49 15 42 20 42 20 39 26 43 24 43 25 59 15 59 15 60 11 57 8 58 8 51ZM57 47 59 51 58 57 55 61 57 62 56 64 54 62 48 63 42 61 40 62 39 65 35 63 34 60 39 59 40 53 53 46ZM38 74 41 62 48 63 54 62 57 64 52 73 48 74 47 76 43 77 40 74ZM7 62 6 60 8 57 11 57 15 60 16 64 7 64 7 63 12 62ZM13 70 16 68 18 70 16 73ZM72 71 71 69 68 63 70 58 71 59 71 51 73 51 73 48 92 48 93 54 94 55 92 56 87 70 85 64 83 68 81 67 79 69 76 69 73 67 71 70ZM35 66 37 74 35 74 34 67ZM49 34 45 28 47 24 49 23 51 23 50 28 52 30Z"/></svg>