<svg xmlns="http://www.w3.org/2000/svg" viewBox="0 0 100 100" fill="currentColor"><path d="M37 49 35 50 35 49ZM36 51 42 50 43 54 46 53 47 52 50 52 50 58 53 58 53 61 50 61 50 66 52 68 35 68 35 63 38 58ZM61 75 56 80 52 80 50 82 48 82 47 79 47 74 48 74 49 69 55 68 59 74ZM39 22 40 26 38 27 40 30 39 34 41 37 41 39 32 38 32 37 30 35 30 33 32 31 35 31 39 24ZM53 12 53 18 52 18 50 22 51 25 44 29 40 30 40 28 38 27 40 26 39 21 37 20 38 18 40 16 41 11 39 7 41 6ZM65 82 64 83 63 82 64 80 65 80ZM34 38 37 38 37 39 39 40 38 41 39 43 38 45 36 44 34 46 35 47 34 47 30 43 31 40 34 40ZM32 38 34 38 34 40 31 40ZM61 85 61 86 59 88 58 87 59 85ZM47 79 47 84 45 85 42 84 42 85 40 82 39 75 35 68 55 68 53 69 49 69 48 74 47 74ZM58 33 54 34 51 35 46 34 45 36 43 36 41 38 39 33 40 30 44 29 51 25 52 28ZM45 36 44 42 42 44 41 47 39 49 36 48 35 49 34 47 35 47 34 46 36 44 38 45 39 43 38 41 39 40 37 39 37 38 41 39 43 36ZM61 48 63 54 60 54 60 59 62 60 62 61 58 59 50 58 50 52 47 52 46 53 43 54 42 50 35 50 38 48 39 49 41 47 42 44 44 42 45 35 46 34 51 35 51 34 56 33 58 33 60 35 62 34 64 38 62 40 61 46ZM42 85 42 84 45 85 47 84 47 79 48 82 50 82 52 80 56 80 61 75 64 75 65 78 65 80 64 80 63 82 64 83 66 82 66 85 60 91 56 93 51 93 47 94 45 93 44 89ZM63 36 62 34 59 35 53 28 56 26 57 27 61 27 62 26 64 27 66 25 65 23 67 23 68 28 67 30 70 33 67 36Z"/></svg>