<svg xmlns="http://www.w3.org/2000/svg" viewBox="0 0 100 100" fill="currentColor"><path d="M45 59 56 60 58 73 44 73ZM19 18 28 12 28 8 40 6 41 20 44 23 33 28ZM33 44 31 39 33 37ZM65 78 56 84 54 82 55 74 60 73ZM23 39 28 33 32 36ZM47 36 49 49 41 49 40 45ZM59 28 57 38 48 42 48 24ZM20 39 26 40 26 45 20 46ZM74 25 60 25 60 13 71 13 71 18 69 15ZM74 34 76 30 82 36ZM88 42 78 47 70 42 76 33ZM43 49 47 53 43 56 40 53ZM30 38 31 44 26 45 26 38ZM13 36 19 37 20 42 14 41ZM77 57 71 53 73 45 81 47ZM19 42 20 46 16 43ZM60 25 59 28 42 22 42 13 60 13ZM90 67 85 83 83 73ZM16 36 15 33 23 33 22 21 35 28 34 33 25 35 23 39ZM27 9 28 12 9 25 19 11ZM9 26 14 26 15 20 19 18 24 21 23 33 10 32ZM72 66 79 64 79 69 72 76 73 81 69 84 70 72 66 70 70 69 72 72ZM54 82 54 86 50 86 44 73 60 73 55 74ZM48 24 47 36 31 36 35 28ZM33 44 35 35 47 37 40 46ZM63 45 49 49 47 45 57 38ZM52 47 49 56 44 58 47 53 46 49ZM65 57 66 68 57 65 56 60 44 59 49 56 53 45 66 46ZM9 35 12 31 16 36ZM80 54 79 48 92 37ZM50 86 65 78 70 84 64 92 54 94ZM60 42 56 36 60 25 74 25 76 30 71 41 69 37ZM67 47 59 41 70 37 73 45ZM71 53 77 57 78 65 72 66 66 59 67 53ZM41 15 39 10 41 6 44 11ZM71 53 66 53 68 47 72 47ZM67 62 70 69 58 73 56 67 59 65 66 68 64 63ZM68 79 60 73 70 72Z"/></svg>