<svg xmlns="http://www.w3.org/2000/svg" viewBox="0 0 100 100" fill="currentColor"><path d="M41 48 37 46 35 40 31 35 27 35 27 24 36 23 48 26 53 25 61 27 62 22 68 27 69 24 71 24 72 27 69 28 62 34 64 38 71 41 73 45 73 41 76 39 75 33 78 32 83 37 85 35 87 39 92 43 88 46 84 46 80 50 85 47 85 51 88 50 88 52 84 54 85 52 83 52 81 49 80 52 71 56 71 52 67 48ZM67 19 60 16 72 17 73 18ZM92 45 91 47 93 47 94 50 89 49ZM70 29 73 31 68 31 69 29ZM74 21 82 23 83 25 82 25 87 27 85 29 82 28 85 31 82 31 84 33 74 30 79 27 75 24 66 23 67 20ZM62 19 65 19 61 21ZM41 19 46 20 40 23 38 22 39 19ZM52 17 53 18 49 19 44 18 46 16ZM53 20 57 24 56 25 48 25 45 24 48 23 43 22 46 20 52 22ZM58 21 60 20 60 22ZM61 12 64 11 69 13 63 14ZM64 10 87 9 76 13 77 14 73 17 66 16 69 15 67 14 69 13 68 12 72 12ZM71 77 78 81 75 81 72 78 69 79ZM41 48 67 48 71 52 71 56 80 52 81 49 83 52 77 59 76 61 75 60 76 63 72 68 73 75 70 69 68 69 62 70 60 74 53 67 45 66 42 64 39 58 39 49 41 50ZM27 24 27 35 31 35 35 41 32 37 28 36 22 34 18 36 19 34 13 40 9 42 14 36 11 37 8 35 8 33 12 30 6 29 11 28 7 25 15 22ZM64 87 66 83 66 87ZM71 86 68 89 66 87 67 85ZM45 66 53 67 55 70 57 70 60 74 60 79 62 83 68 79 64 87 54 82 47 68 50 78ZM70 91 67 89 70 86Z"/></svg>