<svg xmlns="http://www.w3.org/2000/svg" viewBox="0 0 100 100" fill="currentColor"><path d="M76 78 76 82 71 85 69 92 67 92 69 74 72 73 75 76 78 75ZM69 66 71 65 75 71 70 73ZM78 80 76 78 78 75 75 73 75 69 71 65 68 66 66 64 68 61 68 58 71 58 74 55 75 58 79 56 80 59 89 63 85 73 81 75ZM38 28 30 21 27 21 27 15 53 16 54 13 58 16 61 15 62 16 54 20 55 23 61 24 63 26 64 23 64 19 66 19 70 22 71 21 77 25 68 29 71 28 74 30 71 31 72 30 69 29 61 32 61 30 58 28ZM58 12 53 10 62 11ZM77 26 78 29 75 29ZM60 17 62 18 58 18ZM63 13 73 16 69 17 71 20 64 18 66 16 57 13ZM54 12 56 12 54 13ZM38 12 42 12 37 14 36 12ZM47 12 49 15 43 15 41 14 44 14 40 13ZM56 7 73 6 62 10 57 10 60 10 58 8 61 8ZM69 92 69 94 66 92ZM69 70 70 73 66 90 69 92 67 93 65 92 65 88ZM70 58 68 58 68 61 63 58 65 52 68 51 66 53 70 55ZM61 44 66 46 60 45ZM65 59 62 62 62 58ZM38 28 58 28 61 30 61 32 69 29 70 30 64 35 65 36 62 39 62 43 59 39 54 40 52 42 47 39 39 37 37 33ZM27 15 27 21 30 21 33 24 28 21 21 21 21 20 13 24 18 21 13 20 15 18 11 17 15 17 12 15 18 14ZM55 50 57 47 57 50ZM76 58 74 58 74 53ZM41 38 50 40 52 42 53 47 58 45 58 47 55 50 49 47ZM60 52 58 51 61 49ZM75 72 77 74 77 76 73 73 73 71ZM68 61 66 64 69 67 68 70 65 68 62 62 65 59ZM77 57 76 55 78 55ZM76 78 78 81 75 80ZM74 55 70 58 70 55 67 54 67 52 73 52Z"/></svg>