<svg xmlns="http://www.w3.org/2000/svg" viewBox="0 0 100 100" fill="currentColor"><path d="M37 90 41 93 37 93ZM51 61 49 67 52 70 49 72 45 72 44 75 41 75 43 77 38 81 38 82 41 83 36 88 37 90 33 89 31 86 34 80 32 77 37 54 40 50 42 52 44 51 50 55 49 57 53 58 55 55 56 57ZM36 36 41 35 41 37 47 40 47 43 50 43 50 48 45 47 44 51 42 52 40 50 38 52 36 45 37 38ZM56 66 55 64 51 61 56 56 53 51 50 51 50 43 47 43 47 40 41 37 41 35 34 36 34 34 32 35 30 32 31 29 35 28 35 20 38 19 41 21 43 19 42 17 44 17 47 15 49 20 53 19 56 19 58 17 60 20 60 22 67 24 67 26 73 26 78 29 79 32 74 39 71 50 63 54 62 59ZM37 90 37 93 39 93 37 94 29 90 34 92ZM36 45 39 52 34 63 35 66 32 77 34 80 31 86 33 89 37 90 33 92 29 90 28 85 30 83 28 82 30 79 31 80 32 77 30 78 31 70 33 64ZM39 20 35 20 35 28 34 27 35 26 31 25 29 22 26 22 24 20 26 17 26 11 29 8 33 6 31 10 33 13 38 14 38 18ZM28 22 24 28 22 28 22 21 24 20ZM52 20 48 20 48 16 46 14 48 11 51 14 50 17ZM50 48 50 51 53 51 53 53 55 53 53 58 49 57 50 55 44 51 45 47ZM35 28 31 29 30 32 32 35 34 34 34 36 37 38 36 43 35 46 28 41 21 28 22 26 22 28 24 28 29 22 31 25 35 26 34 27ZM54 19 52 20 51 18 51 14 55 15ZM51 61 55 64 55 67 52 67 50 66ZM47 15 44 17 42 17 43 19 40 21 38 18 38 14 33 13 31 10 31 9 33 7 32 9 33 10 33 8 35 6 37 8 45 8 45 9 48 11 46 14Z"/></svg>