<svg xmlns="http://www.w3.org/2000/svg" viewBox="0 0 100 100" fill="currentColor"><path d="M62 72 61 70 63 70ZM36 44 36 41 38 40 39 38 40 38 41 36 43 35 46 38 46 40 49 41 50 43 58 44 62 43 64 42 64 40 66 41 69 38 71 38 70 37 67 37 68 35 71 34 72 32 71 31 73 31 77 31 78 35 81 37 85 36 83 40 81 40 81 43 80 43 79 45 77 44 72 48 73 45 69 48 71 50 72 49 73 49 71 52 73 56 73 60 70 64 68 66 63 68 63 69 58 66 55 67 55 68 53 67 52 65 51 65 52 61 50 60 50 59 47 60 45 60 44 61 44 60 41 60 35 56 35 53 32 51 30 47ZM81 43 78 47 79 48 76 49 76 47 75 46 77 44 79 45 80 43ZM77 49 79 48 79 52 77 53ZM91 47 89 52 85 54 85 53 81 53 82 54 81 56 80 56 80 54 83 52 85 51 86 49 87 50 89 48 89 45 90 45ZM93 42 94 41 94 42 92 44 91 43 89 44 91 40ZM42 35 40 38 39 38 38 40 36 41 36 44 31 42 30 43 28 43 26 45 24 45 22 42 20 42 17 40 14 40 14 45 13 44 11 44 9 41 12 40 12 38 8 39 6 36 7 34 8 35 10 33 14 34 19 34 18 32 20 31 19 30 26 28 30 30 33 29 36 34 39 33ZM28 44 31 42 36 44 28 47 26 47 30 45 27 44ZM43 35 47 34 51 35 53 32 61 35 68 35 68 37 70 37 71 38 66 41 64 40 63 43 58 44 50 43 49 41 46 40 46 38ZM25 50 25 47 26 45 28 46 26 47 30 47 31 48 31 49 29 50 28 48ZM11 44 13 44 15 45 17 43 24 49 20 52 16 49 13 50 12 46 12 45 13 45 12 44 12 45ZM14 45 14 40 17 40 20 42 22 42 24 45 25 45 28 44 27 44 30 45 28 46 26 45 25 47 25 50 17 43Z"/></svg>