<svg xmlns="http://www.w3.org/2000/svg" viewBox="0 0 100 100" fill="currentColor"><path d="M30 46 33 47 35 45 37 45 38 43 36 40 41 38 47 41 54 47 61 47 62 49 63 49 64 51 68 54 68 57 69 59 71 60 72 64 80 65 81 67 80 73 72 76 65 77 60 82 59 81 51 80 50 83 45 74 41 69 39 62 37 61 31 50 30 50ZM59 20 58 20 57 18 52 15 52 13 55 13 56 14 56 15 57 15 57 16 59 18ZM59 11 62 13 64 11 66 14 68 15 66 16 65 21 62 20 63 18 63 17 59 20 59 18 57 16 57 15 55 13 59 13ZM58 20 56 19 55 17 57 18ZM69 59 69 57 70 56 71 58 71 60ZM71 61 77 61 82 56 83 57 83 59 82 59 82 61 81 62 80 66 72 64ZM43 6 56 9 59 11 58 11 59 13 56 12 52 13 49 12 47 12 46 9ZM41 38 40 35 45 32 46 26 50 24 55 24 56 28 58 28 58 30 56 33 58 36 61 37 62 40 62 42 64 45 61 44 59 47 54 47 47 41ZM32 37 32 38 31 37 31 39 30 41 32 40 32 41 30 46 29 41 31 36 33 35ZM32 38 32 37 35 38 40 35 41 38 36 40 38 43 33 47 30 46ZM62 45 63 49 59 47 61 44ZM33 35 31 36 32 33 33 31 34 31 35 33ZM80 65 81 62 82 61 82 59 83 59 85 62 89 63 91 66 88 72 86 72 86 76 83 77 83 79 81 79 79 82 75 82 72 76 80 73 81 67ZM32 37 33 34 35 33 33 31 33 29 35 25 42 25 49 24 46 26 45 32 35 38ZM55 24 50 24 42 25 35 25 33 28 33 27 33 26 30 25 28 27 25 27 23 26 20 26 18 27 15 26 13 26 9 21 11 19 9 18 12 15 15 15 17 13 21 13 27 10 31 10 39 13 49 12 52 13 52 15 55 17 53 18 53 22ZM9 11 13 10 16 12 13 13 9 16 9 14 10 12ZM72 76 75 82 73 83 73 85 66 88 64 90 57 92 55 94 51 94 49 87 51 80 59 81 60 82 65 77Z"/></svg>