<svg xmlns="http://www.w3.org/2000/svg" viewBox="0 0 100 100" fill="currentColor"><path d="M36 38 42 38 36 44 32 44 32 40ZM12 45 16 42 22 45 27 53 18 56ZM21 34 24 36 23 37ZM55 51 52 51 52 47ZM62 59 66 57 65 60ZM46 34 51 28 58 34 67 34 75 30 72 29 77 25 83 29 86 29 83 34 73 37 77 38 75 40 76 46 68 52 64 50 60 51 58 45 52 47 45 43 41 36ZM80 38 82 40 80 41ZM80 62 79 65 77 63ZM77 54 78 59 75 56ZM58 46 55 51 52 47 52 51 46 56 44 63 40 51 37 50 42 42 41 41 44 40 46 45 50 47ZM91 71 91 77 83 70ZM74 66 72 73 68 72 68 68ZM77 69 75 70 78 70 78 74 76 71 75 74 75 69ZM64 70 64 74 57 65ZM16 42 20 38 23 44ZM23 44 19 36 29 38 32 39 33 47 29 48ZM91 37 90 40 83 41 83 43 90 35ZM93 33 90 35 91 31ZM13 42 16 42 13 45ZM51 28 46 34 37 35 30 31 28 35 25 34 24 32 26 30 21 29 24 26 32 27 32 24 38 23ZM39 34 46 34 40 37ZM66 57 61 55 62 51ZM74 66 68 68 73 64ZM51 28 60 26 73 28 72 30 75 30 64 35 58 34ZM61 52 58 54 59 61 55 51 59 46ZM27 50 28 49 31 51 26 55ZM44 40 41 41 39 49 32 48 32 44 36 44 40 39ZM13 42 14 39 18 38ZM64 57 60 58 61 65 58 54 61 52ZM37 38 38 35 42 37ZM25 34 30 34 36 38 33 40 26 38ZM20 38 9 39 6 36 18 35ZM28 35 30 31 41 35 37 38 30 34ZM64 61 66 57 62 51 64 50 67 60 64 62ZM25 53 25 56 19 59 19 55Z"/></svg>