<svg xmlns="http://www.w3.org/2000/svg" viewBox="0 0 100 100" fill="currentColor"><path d="M43 23 47 23 50 21 51 21 52 24 54 23 57 23 51 25 51 27 50 29 49 29 49 30 48 32 48 33 44 34 43 37 36 38 34 37 35 35 35 34 34 34 33 31 34 26 37 26 38 26 40 25 40 23 42 22ZM86 51 86 54 84 50 83 50 82 52 80 51 80 47 79 47 80 46 79 45 79 43 81 44 82 45 86 46 84 49 85 50 85 49ZM85 41 85 43 81 43 80 42 82 40ZM94 40 94 42 92 42 90 43 89 48 87 48 87 51 86 51 85 49 85 50 84 49 86 46 82 45 81 44 79 43 79 45 80 46 79 47 80 47 80 52 77 53 77 54 76 55 74 56 69 61 69 62 66 63 65 73 64 74 63 75 64 76 62 76 61 78 60 76 55 63 53 53 51 54 50 54 47 51 48 51 48 50 46 48 47 47 50 47 49 43 48 42 50 40 52 40 56 35 56 33 57 32 56 31 55 28 56 28 60 28 62 26 63 28 64 31 64 32 63 32 63 34 67 36 65 39 74 43 79 43 79 41 80 40 80 42 81 43 85 43 85 41 89 38 91 38 92 38 93 39 92 40ZM13 37 12 35 12 33 11 32 9 31 8 29 9 26 8 25 6 22 6 19 7 18 8 20 9 20 13 19 12 20 14 21 14 22 19 24 22 24 25 22 28 22 34 24 33 30 34 30 33 31 34 34 35 34 35 35 34 37 37 40 38 43 35 44 35 46 28 45 27 42 26 42 24 43 21 43 18 41 16 36 14 36ZM79 41 79 43 77 43 71 42 65 39 66 37 68 36 75 40ZM62 26 60 28 56 28 55 28 56 31 57 32 56 33 56 35 52 40 50 40 48 42 49 43 50 47 47 47 46 48 45 48 43 45 35 46 35 44 38 43 37 40 34 37 36 38 43 37 44 34 48 33 48 32 49 30 49 29 50 29 51 27 51 25 52 24 57 23 59 26ZM68 79 68 81 66 82 65 77 66 74Z"/></svg>