<svg xmlns="http://www.w3.org/2000/svg" viewBox="0 0 100 100" fill="currentColor"><path d="M28 28 32 27 33 28 28 29ZM33 27 36 28 35 31 34 31 34 29ZM31 34 32 34 34 37 34 40 33 40 32 38 30 36ZM16 42 22 42 26 44 27 45 31 45 37 50 41 50 41 52 43 52 46 53 46 54 43 55 33 55 35 53 34 52 31 52 29 48 27 48 23 46 18 46 16 45 18 44 14 44 11 46 10 46 9 47 6 47 10 43ZM55 56 55 59 54 60 55 62 49 62 47 62 45 61 45 60 52 61 53 60 51 58 51 57 49 56 50 55ZM33 60 36 61 39 63 35 64 33 63 31 61ZM55 62 54 60 55 59 56 55 62 56 62 57 64 57 64 58 66 59 68 60 66 62 65 61 62 61 60 62 59 61 58 61 56 64Z"/></svg>