<svg xmlns="http://www.w3.org/2000/svg" viewBox="0 0 100 100" fill="currentColor"><path d="M10 61 9 62 6 62 8 62 8 60ZM15 54 16 55 17 58 13 58 13 56ZM12 64 15 65 15 66 13 67ZM9 62 11 63 9 64 10 66 8 64ZM12 61 12 63 10 63 9 62 10 61ZM13 56 12 60 9 59 9 56 10 55ZM9 59 10 59 10 60 7 60ZM15 63 15 65 13 65 11 63 13 61 14 61ZM25 62 24 64 25 67 21 65 19 63 21 60 17 58 16 55 15 54 15 51 17 49 15 43 17 43 21 45 20 46 18 45 19 48 19 47 21 47 22 46 23 46 23 44 24 44 24 45 28 44 31 44 31 43 35 44 34 42 35 40 37 41 37 46 38 44 37 41 38 40 39 42 39 41 41 41 41 39 52 36 57 38 55 39 63 40 65 42 66 41 70 41 70 40 79 42 80 43 84 44 84 42 89 43 89 47 88 47 89 49 84 51 81 51 80 55 78 59 77 54 82 49 79 51 79 50 78 50 77 52 71 52 67 55 70 57 70 61 67 65 65 66 65 64 66 64 67 61 65 61 62 57 60 57 59 60 57 59 54 60 50 58 49 60 46 59 44 60 42 59 40 59 39 56 37 57 35 55 31 56 31 58 31 59 26 58 25 60 25 59 24 61ZM47 33 49 33 50 35 47 35 46 34ZM69 37 72 38 69 39 68 38ZM27 39 31 37 35 37 30 39 28 41 29 42 27 41ZM71 56 72 60 71 60 71 63ZM92 45 94 46 93 47 90 46 89 47 89 43ZM11 63 12 64 12 66 11 65ZM17 58 21 60 21 61 18 63 17 62 15 63 16 61 12 61 12 60 13 58Z"/></svg>