<svg xmlns="http://www.w3.org/2000/svg" viewBox="0 0 100 100" fill="currentColor"><path d="M67 36 68 39 66 40 67 42 66 43 62 43 63 41 62 41 61 40 62 36 63 36 63 35 64 35 65 36 66 35ZM62 39 61 41 59 39 61 39ZM80 57 81 57 80 58ZM64 35 63 35 63 33 65 32ZM66 33 66 35 65 34ZM52 55 53 50 51 49 51 48 52 47 59 49 58 50 57 53 56 55 54 55 53 56ZM77 30 76 32 74 32 74 31 75 30ZM77 19 77 20 78 21 79 23 78 25 79 26 77 29 73 29 72 28 72 26 75 23 74 22 74 20 72 19 75 19 77 18 78 18ZM21 92 20 94 19 94 19 90ZM62 41 63 41 61 44 62 47 59 49 56 48 56 45 54 42 56 42 56 41 57 41 59 39ZM63 49 64 48 64 50ZM73 50 76 50 76 51 74 51 73 51 74 54 73 56 71 52 72 51ZM53 36 52 38 50 38 50 36 52 35 52 36ZM47 22 48 23 44 25 41 25 42 24 40 24 42 23 40 23 42 22 43 23ZM65 44 67 44 67 45 66 45 66 47 70 51 70 52 69 51 69 54 68 51 65 49 64 47 63 47 62 47 62 45 64 45ZM68 54 68 53 68 55 66 54ZM63 51 64 51 63 53ZM76 32 77 33 76 34 75 33 72 34 73 32 74 32 75 31ZM76 34 75 36 74 36 72 34 75 33ZM68 7 69 7 72 8 71 8 69 10 68 10 65 7ZM79 18 77 19 78 18 77 18 75 19 72 19 71 20 70 20 67 25 66 25 66 29 65 30 63 31 61 31 61 27 71 18 77 17 79 17 78 18ZM77 7 73 7 69 6 73 6ZM75 9 72 9 73 8ZM62 36 62 39 60 39 61 37ZM51 49 53 50 52 55 51 55 51 53ZM53 36 52 36 52 35 53 35ZM55 37 53 33 54 31 55 31 54 32 56 32 55 34 58 37 58 39 54 40 55 39 54 38 54 36ZM65 30 66 28 66 26 69 20 72 19 74 20 74 22 73 23 72 24 70 26 69 28 70 29 69 31 68 33 66 34ZM64 43 64 44 62 45 61 44 62 43Z"/></svg>