<svg xmlns="http://www.w3.org/2000/svg" viewBox="0 0 100 100" fill="currentColor"><path d="M31 43 30 46 28 46 28 43 29 42ZM32 46 31 47 29 47 31 46ZM36 41 37 42 37 44 34 44 34 43ZM34 48 36 49 36 50 34 50ZM32 47 33 48 31 48 32 49 31 48ZM23 53 23 50 22 49 27 50 25 53ZM36 39 35 40 34 40ZM36 33 37 37 34 39 33 37 35 36 33 33ZM7 73 6 74 6 72ZM28 45 28 49 25 49 24 46 27 44ZM34 50 35 50 34 51 34 53 33 51ZM34 46 33 47 31 47ZM23 43 22 44 23 42ZM20 35 21 36 19 37 17 35ZM29 47 31 47 30 49 32 51 31 52 29 49 28 48 28 47ZM35 40 35 42 33 41 34 40ZM35 42 34 43 33 41ZM31 27 33 27 31 29 29 27ZM37 33 32 34 30 36 30 40 28 40 27 38 33 33 36 32ZM34 43 34 46 31 44 31 42ZM22 50 23 50 23 53ZM25 43 24 40 26 43 26 44 24 45ZM31 44 32 45 31 46 30 45ZM36 48 36 49 34 49 33 47 35 46ZM43 47 42 48 43 50 40 49 39 48 40 45 37 44 37 42 36 41 36 39 37 37 36 33 37 33 40 34 39 35 38 35 39 37 41 35 41 34 42 35 45 34 47 34 47 33 50 34 50 32 51 31 52 31 52 35 53 34 52 31 53 32 55 32 55 31 63 28 67 29 65 30 71 31 73 32 76 32 76 31 84 33 90 33 90 36 89 36 90 37 84 39 84 42 82 44 82 41 85 37 83 39 82 38 81 39 77 39 74 42 76 43 76 46 73 50 74 46 73 46 70 43 68 45 65 45 61 44 61 45 59 44 57 45 54 44 53 42 52 43 50 42 48 43 48 44 44 44 43 45ZM59 26 62 27 59 27 58 27ZM76 29 78 29 76 30 75 30ZM45 31 50 29 47 30 46 31 46 32 44 32ZM77 43 78 46 77 47ZM92 35 94 35 93 36 91 35 90 36 90 33ZM32 47 34 48 34 50ZM30 40 30 36 33 33 34 35 32 37 31 41 30 42ZM37 44 40 45 40 46 38 48 37 47 36 48 36 46 34 46 34 45 34 44Z"/></svg>