<svg xmlns="http://www.w3.org/2000/svg" viewBox="0 0 100 100" fill="currentColor"><path d="M61 44 64 44 60 46 60 44ZM49 40 48 41 47 41 47 40ZM48 56 51 56 51 59 48 59ZM54 46 55 45 57 46 59 49 56 50ZM43 47 45 44 47 44 48 48 46 49ZM31 62 31 64 29 65 29 68 28 68 28 60 30 60 31 61 32 61ZM76 62 73 63 73 60 78 57 79 59 80 57 83 61 82 64 80 64 79 63ZM52 39 53 40 51 40ZM28 57 29 56 31 59 29 60ZM52 60 50 61 50 59ZM32 63 31 62 32 61 31 58 27 56 28 53 30 53 31 54 33 53 33 54 37 56 35 60ZM51 42 52 42 51 43ZM44 51 45 50 46 51ZM49 50 49 53 48 53ZM15 41 11 38 11 35 25 35 25 36 22 38 23 39 26 40 26 37 27 37 32 40 28 41 29 41 30 42 29 42 28 41 25 43 24 41ZM24 34 21 34 25 34ZM32 40 32 42 31 41ZM26 35 30 36 29 36 29 37 26 37 27 36 23 35ZM15 34 17 34 15 35ZM19 34 20 36 16 35ZM23 32 30 32 25 34 23 34 25 33ZM51 49 51 51 49 52 49 48ZM28 59 29 60 28 68 27 66ZM65 43 67 41 69 43 72 43 74 41 73 41 75 40 78 41 77 43 74 44 75 44 74 45 75 46 72 48 69 48 69 46 67 47 64 46 63 43ZM29 54 28 53 28 55 26 54 27 51 28 51 27 51 29 52ZM43 51 44 51 44 53 43 53ZM27 54 26 55 26 54ZM54 48 51 48 51 46 54 46ZM54 50 55 49 56 51ZM43 44 43 42 46 43 45 44ZM15 41 24 41 25 43 28 41 29 42 26 44 26 47 24 46 21 47 16 45 15 43ZM11 35 11 38 13 39 8 38 6 39 93 39 6 38 94 38 93 38 94 37 92 36 94 36 92 36 94 35ZM57 52 55 53 53 52 54 50ZM75 49 76 51 75 50ZM52 36 53 37 50 38 51 37 50 36ZM47 41 47 42 46 43 44 41ZM48 53 49 54 48 55ZM45 51 45 52 44 53ZM51 43 52 43 51 44ZM42 51 43 51 43 52ZM69 46 68 48 67 47 67 48 65 50 64 52 62 48 63 45 64 44 66 47ZM80 55 80 56 77 54ZM74 53 74 55 72 55 72 53ZM75 54 75 55 74 55ZM71 54 71 55 68 52ZM55 45 56 44 57 46ZM57 46 56 43 59 44 61 47ZM42 36 41 37 39 36ZM48 41 50 43 49 44 47 42ZM81 42 79 43 80 42ZM67 41 65 43 62 43 59 42 58 43 58 41 57 41 62 39ZM55 55 53 54 54 52 55 53ZM71 50 70 49 70 48ZM51 48 51 49 48 47 48 46 51 45ZM57 57 56 61 56 59ZM74 53 72 54 74 52ZM42 51 42 50 44 50 44 47 46 49 44 51ZM45 45 41 48 43 45ZM41 48 43 47 44 47 44 50 41 50ZM17 45 20 46 22 49 24 48 24 49 23 50 20 49ZM67 41 69 40 74 41 71 43ZM54 57 55 57 55 58 53 61 53 58 54 58ZM70 48 69 51 68 48 69 46ZM50 60 49 61 48 59 51 59 50 59ZM25 51 24 50 25 50ZM49 48 49 51 45 50 46 49ZM46 52 46 50 49 51 47 53ZM49 33 50 33 49 33 48 33ZM53 35 50 36 48 38 47 38 46 37 50 35ZM88 65 87 63 89 64ZM87 65 88 65 87 66 86 66ZM59 48 60 48 58 49ZM64 44 63 45 63 47 60 47 60 46 61 46 63 44ZM80 55 82 57 80 56ZM31 59 32 61 30 60ZM28 55 27 56 28 57 28 59 25 55 27 54ZM51 40 51 41 49 40ZM44 40 44 38 46 40 44 41ZM52 53 49 53 49 52 51 51ZM49 40 50 41 49 41ZM50 53 48 55 48 53ZM52 55 52 57 48 55 50 53 52 53ZM52 42 50 42 52 41ZM57 42 57 43 55 42 54 42 55 41 52 39 53 37 52 36 53 35 55 36 53 36 54 37 56 36 62 36 62 34 63 36 63 35 71 33 77 35 89 36 89 37 85 38 84 40 83 39 85 37 80 38 78 39 80 40 79 41 77 43 78 41 75 40 74 41 69 40 67 41 62 39 60 40 57 40ZM58 34 62 34 59 34 59 35 58 35ZM90 36 92 36 91 37 89 37 89 36ZM41 50 42 49 42 51ZM54 45 54 44 56 44ZM55 54 55 53 58 51ZM49 61 52 60 53 61 52 63 50 63ZM51 52 51 51 51 48 54 48 53 52 53 51ZM53 53 51 52 53 51 54 52ZM48 38 49 36 51 36 49 39ZM71 50 70 50 70 52 69 49 70 48ZM53 54 55 55 55 57 52 56ZM62 44 62 43 63 44ZM58 43 60 43 61 44 58 44ZM56 44 52 44 52 43 56 43ZM53 40 55 41 54 42 51 41ZM53 54 52 54 53 53ZM31 62 32 63 31 63ZM59 43 59 42 63 43 62 44ZM30 53 29 54 27 51 30 51ZM71 51 71 50 70 48 71 48 72 51ZM58 49 58 50 56 51 56 49ZM53 56 53 58 51 59 51 57 52 57ZM53 60 51 59 53 58Z"/></svg>