<svg xmlns="http://www.w3.org/2000/svg" viewBox="0 0 100 100" fill="currentColor"><path d="M52 74 53 74 53 78 50 78 48 74 51 75ZM23 61 21 62 20 64 15 64 12 66 10 66 8 64 9 63 9 60 6 52 7 53 6 51 7 53 6 50 7 46 7 47 11 44 16 43 19 38 20 39 20 38 20 37 21 38 23 35 25 34 26 35 28 36 28 35 29 32 32 31 31 30 32 30 36 32 37 31 38 32 37 33 36 36 42 40 44 38 44 32 45 29 47 35 48 34 49 36 51 42 54 44 55 47 56 47 57 48 60 52 60 55 59 60 56 66 55 69 51 71 49 71 49 70 47 71 43 70 41 67 39 66 40 65 38 66 39 62 37 65 36 65 34 62 30 60ZM92 73 91 75 90 75 89 75 90 74 88 72 89 71 89 69 86 65 88 66 91 69 94 69 93 72 92 72ZM82 78 86 74 87 75 88 74 88 75 86 78 87 79 84 79 83 82 82 83 78 82ZM43 17 48 19 50 21 52 22 53 23 51 23 52 24 56 29 53 28 50 25 48 25 46 26 47 27 46 27 43 27ZM57 22 55 23 53 22 55 22 56 21 56 22 57 21 58 20 58 19 59 21Z"/></svg>