<svg xmlns="http://www.w3.org/2000/svg" viewBox="0 0 100 100" fill="currentColor"><path d="M48 56 46 59 46 58ZM25 44 25 40 31 41 32 40 34 42 33 44 30 45 31 46 26 47ZM58 43 57 42 59 43 58 44ZM61 48 63 46 61 50ZM68 51 68 53 67 55 67 53 66 54 66 56 64 55 63 52 59 53 62 51 66 50 66 49ZM53 49 51 51 55 46 55 47ZM60 33 59 40 63 41 63 44 61 42 57 41 58 40 56 38 57 33ZM60 46 62 45 60 47ZM66 44 66 46 65 46 65 48 64 44ZM94 71 94 83 92 81 88 82 90 80 88 76 81 73 79 74 78 71 81 70 78 70 75 68 81 68 82 71 84 72 88 69ZM65 83 64 85 62 85ZM52 59 51 60 54 65 52 65 49 74 38 72 36 66 37 63 39 65 45 64 46 64 49 59ZM73 71 76 73 70 73ZM68 73 67 72 69 72ZM70 62 72 64 71 68 69 65ZM61 65 65 63 64 66 56 66 56 67 58 69 62 67 59 70 62 76 60 76 61 74 59 75 58 71 57 72 57 76 56 77 54 71 56 66 58 64ZM57 85 54 84 56 83 57 84ZM53 82 54 82 50 83ZM35 78 43 79 48 82 46 82 32 80 30 79 31 77ZM28 68 31 72 30 77 28 77 22 71 11 56 15 57 21 63 24 64 27 66 26 68ZM33 41 29 40 30 38 27 33 22 34 22 31 20 29 23 28 23 26 26 29 28 29 29 30 27 31 33 37ZM20 55 25 56 28 64 22 61ZM52 59 49 59 46 64 39 65 38 64 37 63 40 63 46 58 48 58 50 54 55 57ZM20 29 17 31 15 33 18 37 17 39 19 45 17 48 17 42 15 36 12 38 9 37 10 33 6 27 11 18 15 17 16 15 18 19 16 23 17 23 19 25 19 26 22 27ZM29 40 25 40 25 44 20 42 18 50 24 55 22 56 17 51 19 45 17 39 18 37 15 33 17 31 20 29 22 31 22 34 26 33 28 35 30 38ZM28 47 31 46 30 45 33 44 34 39 27 31 29 30 28 29 26 29 24 25 30 24 34 27 30 32 36 39 37 45 29 51Z"/></svg>