<svg xmlns="http://www.w3.org/2000/svg" width="512" height="512" viewBox="0 0 512 512" role="img" aria-label="Banderas del Mundo">
  <!-- Maskable: navy a sangre (sin esquinas); la marca dentro de la zona segura central -->
  <rect width="512" height="512" fill="#12293F"/>

  <!-- Retícula de coordenadas, muy tenue -->
  <g stroke="#22415C" stroke-width="2" opacity="0.5">
    <line x1="0" y1="160" x2="512" y2="160"/>
    <line x1="0" y1="256" x2="512" y2="256"/>
    <line x1="0" y1="352" x2="512" y2="352"/>
    <line x1="160" y1="0" x2="160" y2="512"/>
    <line x1="256" y1="0" x2="256" y2="512"/>
    <line x1="352" y1="0" x2="352" y2="512"/>
  </g>

  <!-- Marca escalada (0.72) y centrada dentro de la zona segura (~80%) -->
  <g transform="translate(256 262) scale(0.72) translate(-256 -256)">
    <ellipse cx="178" cy="402" rx="34" ry="11" fill="#8A560F"/>
    <rect x="168" y="108" width="18" height="296" rx="9" fill="#C07F30"/>
    <circle cx="177" cy="104" r="15" fill="#C07F30"/>
    <rect x="186" y="136" width="26" height="112" fill="#B8742A"/>
    <path d="M212 136 C268 127 322 149 378 134 L378 246 C322 259 268 239 212 250 Z" fill="#F2F5F7"/>
    <path d="M212 250 C268 239 322 259 378 246 L378 236 C322 249 268 229 212 240 Z" fill="#12293F" opacity="0.06"/>
  </g>
</svg>
