<svg xmlns="http://www.w3.org/2000/svg" viewBox="0 0 100 100" fill="currentColor"><path d="M39 87 41 90 47 93 46 94 39 93ZM62 28 60 39 63 41 63 43 64 44 64 46 62 49 59 50 52 51 53 56 52 57 49 57 48 56 47 57 47 59 48 60 50 59 50 61 47 63 46 67 44 67 42 68 42 70 44 72 46 73 45 75 42 77 41 80 38 82 39 85 40 86 33 85 32 82 31 82 30 81 30 78 31 77 32 76 33 67 34 66 33 65 34 64 33 63 32 60 33 59 33 56 34 51 35 50 34 45 36 43 36 41 37 39 36 31 37 28 37 23 40 19 40 18 40 13 42 12 43 8 44 6 47 7 48 9 49 6 51 7 56 11 62 15 62 16 60 20 64 21 66 21 68 19 68 16 69 16 70 17 70 19 67 22Z"/></svg>