<svg xmlns="http://www.w3.org/2000/svg" viewBox="0 0 100 100" fill="currentColor"><path d="M81 83 82 83 83 86 82 89 81 88 79 90 78 90 75 83 78 84ZM34 62 30 64 29 66 20 66 16 69 13 69 10 67 10 66 11 65 11 61 10 56 6 48 7 49 6 46 8 48 6 43 8 37 8 39 9 37 13 34 15 35 19 33 22 32 25 28 26 26 27 24 28 26 29 26 28 25 29 23 30 24 30 22 33 19 34 19 36 18 39 20 42 21 41 19 44 15 45 14 48 14 48 12 46 12 48 11 54 14 57 13 58 14 55 17 54 21 65 27 66 26 67 24 68 21 68 14 70 10 73 20 74 19 76 21 78 30 84 34 85 38 86 38 87 39 88 39 88 41 92 45 93 47 93 50 94 52 93 61 92 63 90 64 87 71 86 75 85 76 82 76 78 79 75 77 75 76 72 78 66 76 64 75 63 72 62 71 60 70 61 69 60 67 59 69 57 70 60 66 60 64 56 67 56 69 54 68 54 66 51 64 52 63 45 60Z"/></svg>