<svg xmlns="http://www.w3.org/2000/svg" viewBox="0 0 100 100" fill="currentColor"><path d="M52 94 52 93 53 92 51 90 44 86 43 86 48 81 52 79 52 77 51 75 49 76 50 72 48 72 47 68 42 68 42 65 42 63 43 59 42 57 41 57 41 55 37 55 36 49 28 46 25 44 26 40 23 40 19 43 14 43 14 39 12 41 10 41 10 39 8 39 9 38 6 35 7 33 8 33 9 30 13 27 15 28 17 20 15 18 15 17 17 16 16 15 16 14 20 14 21 13 22 15 23 16 25 16 30 13 28 12 28 9 27 9 31 9 35 8 36 6 37 7 37 8 38 9 38 12 38 14 40 15 43 13 46 14 46 12 53 13 56 8 57 8 59 14 60 14 60 15 58 17 59 18 63 18 63 21 65 19 71 21 72 23 72 24 74 23 79 24 82 24 88 29 92 29 94 34 93 38 85 47 84 58 82 62 80 65 80 67 78 68 78 70 72 71 65 74 63 76 62 83Z"/></svg>