<svg xmlns="http://www.w3.org/2000/svg" viewBox="0 0 100 100" fill="currentColor"><path d="M27 78 23 75 20 67 20 64 16 56 14 58 11 55 11 35 15 36 21 34 22 33 24 35 25 34 25 35 28 34 34 36 35 37 34 38 35 39 38 38 39 40 40 37 42 37 46 39 49 39 49 37 51 40 52 36 50 34 51 30 54 31 56 37 57 36 58 37 58 40 60 34 63 35 64 36 64 40 62 42 60 41 52 53 52 57 53 58 54 61 63 65 65 74 66 71 65 66 68 63 66 58 67 56 67 50 71 50 74 53 75 57 76 59 79 54 81 63 87 69 87 72 83 76 77 76 73 83 78 78 79 84 82 85 82 83 83 85 82 86 77 90 79 86 76 87 76 83 75 82 73 87 70 87 63 94 63 86 58 80 55 80 52 78ZM58 25 54 24 54 22 50 19 55 20 57 22 64 22 65 24ZM87 74 86 77 89 78 89 83 88 81 87 83 86 81 84 81 85 75ZM62 44 65 47 62 47 60 49 59 48 60 43ZM66 29 67 28 70 31 72 31 75 33 77 36 75 37 81 41 79 45 76 42 79 48 78 50 75 47 77 51 73 49 70 45 66 46 67 44 70 44 72 40 67 35 57 32 57 31 56 31 56 29 58 27 60 26 60 29 63 26 64 30ZM52 25 56 26 52 30 51 28ZM27 21 30 18 33 18 32 20ZM28 25 33 27 27 32 24 30 26 26 25 25ZM40 22 42 21 42 23 36 25 35 24 37 23 31 23 33 20 39 22 38 20 39 20ZM41 28 43 32 46 34 45 35 45 37 42 36 35 37 32 34 36 33 31 33 33 31 30 31 34 27 34 28 37 29 38 28 40 31 40 27ZM47 28 46 27 47 26 50 26 50 31 48 31 45 29ZM49 20 49 23 45 22 45 21ZM51 12 54 10 60 14 57 16 54 16 53 14 50 13ZM55 9 66 6 81 7 76 10 78 10 73 13 68 14 69 16 65 19 67 20 65 21 57 20 58 19 58 17 61 18 58 16 60 14 59 12 63 12 58 12Z"/></svg>