<svg xmlns="http://www.w3.org/2000/svg" viewBox="0 0 100 100" fill="currentColor"><path d="M86 52 86 57 86 59 87 62 89 64 92 70 90 70 83 71 81 74 82 76 81 86 86 89 87 88 87 93 84 93 80 88 76 88 75 85 73 87 69 86 67 84 62 84 62 82 58 82 52 83 52 77 51 76 51 73 51 70 50 68 50 65 45 65 45 64 43 64 42 64 40 65 38 69 35 68 31 69 28 65 25 59 12 59 7 60 6 58 7 58 8 55 10 54 11 54 13 52 15 52 15 54 17 55 24 48 24 44 26 40 31 35 31 33 32 23 35 18 35 12 37 10 40 8 47 11 53 13 55 10 58 10 63 8 64 9 66 9 67 7 68 7 75 8 76 7 79 11 81 12 87 10 88 12 92 15 92 21 94 21 91 24 88 29 87 38 85 39 84 45 85 47Z"/></svg>