<svg xmlns="http://www.w3.org/2000/svg" viewBox="0 0 100 100" fill="currentColor"><path d="M57 81 56 81 56 79 59 78 59 81ZM15 38 15 37 16 37 15 34 19 33 20 29 22 30 23 29 23 27 26 26 27 27 30 29 31 30 30 32 31 33 34 34 37 35 39 38 45 38 51 40 57 38 61 36 60 35 61 33 63 34 69 31 72 31 72 30 70 28 66 29 66 28 68 25 69 26 71 24 74 21 73 20 76 19 81 20 83 25 86 26 88 27 88 29 94 27 91 33 88 34 88 37 88 38 87 37 86 38 84 39 84 40 82 39 79 43 74 45 76 42 75 41 69 45 72 48 74 46 76 47 76 48 74 49 71 52 73 53 75 57 75 59 74 59 75 61 75 64 74 64 71 70 67 73 64 74 59 76 59 78 58 78 58 76 54 75 53 73 51 72 46 74 46 76 45 75 44 75 43 74 43 73 42 73 42 71 40 71 40 69 42 68 42 65 41 63 38 63 39 62 38 61 37 62 36 62 33 64 29 63 28 65 28 64 23 64 13 58 13 56 14 56 14 55 14 53 12 51 10 50 8 47 8 45 6 45 6 44 8 42 10 42 11 41 12 40Z"/></svg>