<svg xmlns="http://www.w3.org/2000/svg" viewBox="0 0 100 100" fill="currentColor"><path d="M82 65 81 65 80 62 78 61 77 62 66 62 66 66 69 66 69 68 68 68 65 69 65 72 68 74 68 77 66 94 63 91 62 91 65 86 61 83 58 84 56 83 53 84 49 84 46 78 44 77 42 74 39 72 37 72 32 69 31 70 26 69 25 67 19 64 18 63 20 62 20 59 21 58 24 57 28 51 26 50 27 47 26 42 27 41 26 36 24 33 25 31 26 31 27 30 26 27 27 26 30 26 33 22 36 22 37 16 40 13 43 13 43 12 47 12 54 9 56 6 58 6 59 8 58 9 55 10 54 13 50 16 48 23 51 24 51 26 53 27 53 32 54 33 55 35 62 34 65 35 69 39 77 38 79 39 77 44 77 48 80 54 77 57 80 60Z"/></svg>