<svg xmlns="http://www.w3.org/2000/svg" viewBox="0 0 100 100" fill="currentColor"><path d="M94 50 94 63 92 61 87 62 88 60 89 59 88 56 80 52 79 53 78 52 77 51 80 50 77 50 74 47 77 46 80 47 81 51 83 52 85 50 87 49ZM63 62 63 63 62 65 60 65 61 63ZM81 59 81 56 82 57ZM49 37 48 39 50 41 49 42 52 44 49 44 49 47 47 48 46 53 46 52 44 53 43 52 41 51 38 52 38 51 35 51 34 48 33 46 32 44 33 43 34 41 35 44 40 42 42 43 43 43 46 37ZM72 51 74 51 74 53 73 52 69 52 69 51ZM67 53 65 51 67 51 67 52ZM69 41 69 42 70 42 70 43 70 45 69 45 69 46 70 47 69 47 68 43ZM59 44 61 44 63 42 62 44 54 45 54 46 55 48 56 47 60 46 60 47 59 47 56 49 58 51 58 52 60 54 60 56 59 56 58 55 59 54 57 55 56 54 57 53 55 52 55 50 54 51 54 56 53 56 52 56 53 52 52 52 51 51 53 45 55 43ZM54 65 52 64 53 63 55 65ZM56 62 59 61 59 62 56 63 53 62ZM50 61 51 61 52 62 47 63 49 61ZM31 58 32 58 35 59 36 58 39 59 40 60 45 61 43 62 27 59 25 59 27 57ZM23 47 24 50 26 50 27 51 26 57 24 57 18 51 14 45 12 42 6 36 6 35 10 35 16 41 18 41 20 43 22 45 22 47Z"/></svg>