<svg xmlns="http://www.w3.org/2000/svg" viewBox="0 0 100 100" fill="currentColor"><path d="M92 29 93 30 92 31 92 33 90 32 86 35 86 36 83 43 81 42 80 48 79 49 77 44 76 46 74 44 75 43 77 42 78 40 71 39 71 36 67 35 66 37 68 39 65 41 67 42 67 44 68 49 68 50 62 51 62 53 61 55 57 57 53 61 48 65 48 67 43 69 42 71 43 78 41 81 41 86 40 87 39 89 39 90 37 91 35 94 32 91 29 83 27 79 26 73 23 68 20 51 16 53 14 53 10 49 12 48 11 46 7 44 9 42 16 42 15 39 13 37 13 35 11 33 14 30 18 30 26 20 26 18 28 16 26 15 24 10 25 8 29 9 33 9 36 6 39 10 38 12 40 14 39 16 37 15 38 19 45 23 43 24 42 27 52 32 56 32 57 34 65 35 66 30 67 30 68 33 70 34 77 34 77 32 76 31 78 30 84 26 87 27 89 25 90 27 89 29Z"/></svg>