<svg xmlns="http://www.w3.org/2000/svg" viewBox="0 0 100 100" fill="currentColor"><path d="M36 8 40 9 41 7 47 6 49 9 57 11 57 15 58 19 53 18 48 21 49 25 48 27 50 31 56 36 59 43 66 49 71 49 72 51 70 53 81 58 86 63 87 64 85 67 82 63 76 62 74 67 78 70 78 75 75 75 72 83 69 83 70 76 72 74 67 65 65 64 63 61 59 59 56 56 52 55 41 46 37 41 35 33 27 29 24 30 20 34 18 35 18 31 15 30 13 23 16 21 14 18 14 15 17 17 20 17 23 14 24 15 27 15 29 12 33 13 36 11ZM63 81 68 80 66 87 67 90 65 94 61 91 49 86 50 81 57 82ZM26 58 29 56 33 61 32 73 29 72 26 75 24 73 24 62 22 58Z"/></svg>