<svg xmlns="http://www.w3.org/2000/svg" viewBox="0 0 100 100" fill="currentColor"><path d="M94 46 92 48 91 49 90 52 89 53 85 52 83 58 78 60 80 65 79 66 79 68 76 66 69 66 66 65 64 66 64 68 61 66 59 67 59 68 55 71 54 73 53 73 52 72 50 72 49 69 48 69 48 66 46 64 39 64 37 61 32 58 26 60 26 71 25 71 24 69 22 68 20 69 19 70 19 67 16 66 14 61 16 61 16 59 20 59 20 54 16 53 12 55 11 55 11 53 9 51 8 51 6 49 8 42 11 44 11 42 15 38 19 38 26 42 28 40 32 40 34 42 35 41 38 41 39 40 35 38 37 36 37 35 39 34 37 32 38 31 46 30 53 28 55 27 59 27 59 31 61 30 64 31 64 33 66 32 71 29 71 30 73 33 78 41 79 39 82 41 85 40 90 45 93 44Z"/></svg>