<svg xmlns="http://www.w3.org/2000/svg" viewBox="0 0 100 100" fill="currentColor"><path d="M6 22 13 21 13 22 24 26 32 26 32 24 37 24 41 28 43 31 44 32 47 33 49 31 51 30 53 32 57 38 59 41 64 43 62 48 62 54 64 60 68 65 71 66 72 67 81 65 83 64 84 58 89 57 93 57 94 59 92 63 91 67 90 66 89 66 88 68 82 68 82 70 81 70 83 73 83 74 80 74 78 77 78 79 73 74 71 74 66 75 53 71 50 68 46 67 41 64 40 62 39 60 40 60 40 57 38 53 31 45 29 44 28 43 29 41 26 39 25 37 23 36 20 33 18 26 13 24 12 25 13 29 22 40 25 48 26 48 28 51 27 53 26 51 20 46 20 42 14 39 12 37 13 37 15 34 11 31Z"/></svg>