<svg xmlns="http://www.w3.org/2000/svg" viewBox="0 0 100 100" fill="currentColor"><path d="M43 45 40 40 45 41 48 43 46 49ZM55 64 57 62 57 58 61 58 60 62 65 56 64 62 62 64 60 69 58 71 53 66ZM80 75 81 83 79 89 77 82 73 86 76 91 74 94 66 90 64 85 66 82 62 79 60 81 56 81 52 85 50 83 53 77 61 73 63 76 68 74 69 71 74 71 74 66 79 69ZM28 69 19 75 22 70 31 61 34 55 36 60 31 64ZM53 8 52 11 54 16 53 21 49 24 48 29 49 34 53 35 56 34 64 38 63 42 66 44 65 47 60 43 57 40 55 42 51 38 45 39 42 38 42 35 44 33 42 32 41 34 38 30 37 27 37 21 40 23 40 12 42 6 46 6 51 8 53 6ZM51 54 50 51 54 53 58 53 58 56 55 59 51 61ZM74 49 76 57 71 55 73 61 70 63 69 58 67 58 66 54 70 54 70 52 66 46 72 47Z"/></svg>