<svg xmlns="http://www.w3.org/2000/svg" viewBox="0 0 100 100" fill="currentColor"><path d="M18 66 16 68 18 71 17 72 16 71 13 70 11 68 12 66 12 65 13 65 13 63 10 62 9 60 8 60 8 59 9 59 8 56 6 56 6 53 7 51 6 51 8 48 7 47 7 44 7 43 7 41 9 40 13 43 13 44 12 45 9 44 10 45 10 46 11 47 11 46 13 46 14 44 15 45 15 42 16 42 16 44 20 42 23 42 24 42 24 40 28 42 29 42 27 41 27 39 29 37 31 38 30 39 31 42 30 44 30 45 32 43 31 39 32 37 33 39 32 38 33 38 35 38 35 36 38 36 38 35 46 33 48 32 49 33 51 33 53 34 50 36 52 36 53 37 54 36 58 37 58 36 60 36 62 39 63 38 67 39 66 38 67 37 72 38 74 39 77 39 78 41 82 41 83 42 84 41 83 40 89 41 89 46 87 46 88 49 85 50 83 51 80 51 79 53 79 54 79 57 76 61 76 55 80 50 80 49 78 51 77 49 76 50 75 52 73 53 73 52 72 52 68 52 64 57 66 58 67 58 68 59 67 64 64 70 63 70 62 71 62 68 63 68 64 64 62 65 60 63 59 59 58 59 56 59 57 60 55 63 53 62 51 63 50 63 49 62 47 62 45 60 44 63 41 61 38 63 36 61 35 61 33 57 31 59 29 56 24 58 25 59 24 60 24 61 21 62 19 60 18 62 17 62 16 64ZM42 28 44 28 45 30 42 30 41 29ZM47 30 48 31 45 32ZM66 34 70 34 69 35 66 35 65 34ZM20 36 21 35 24 33 28 33 23 36 21 38 22 39 19 39 21 36ZM68 58 69 63 69 67 68 66 68 67 68 59ZM91 43 92 44 91 44 93 44 94 45 93 45 92 47 89 45 89 46 89 41Z"/></svg>