<svg xmlns="http://www.w3.org/2000/svg" viewBox="0 0 100 100" fill="currentColor"><path d="M53 26 55 26 56 24 63 24 66 28 65 30 65 32 69 32 71 35 71 37 77 40 81 38 84 42 87 42 94 44 94 46 92 50 93 54 92 57 88 57 85 59 85 63 81 63 78 66 73 66 69 69 69 73 68 71 63 69 62 71 61 70 53 68 53 66 48 67 43 76 41 75 38 76 36 75 37 74 39 69 39 68 40 67 41 68 45 68 43 64 42 61 40 60 40 57 38 55 36 55 33 53 29 53 28 54 26 54 25 56 21 57 20 58 17 56 11 55 9 57 9 55 6 53 8 48 9 48 8 45 13 39 15 38 16 36 13 30 15 29 18 27 22 27 27 28 32 29 36 30 38 31 40 29 41 31 45 31 47 31 48 28 49 26Z"/></svg>