<svg xmlns="http://www.w3.org/2000/svg" viewBox="0 0 100 100" fill="currentColor"><path d="M45 49 70 48 70 49 73 50 75 50 80 54 80 58 84 57 84 56 85 56 87 54 90 54 92 51 93 51 94 54 91 56 91 58 88 59 90 59 88 60 87 62 87 61 87 63 86 64 86 62 86 63 85 63 86 66 81 72 83 77 82 80 81 79 79 73 78 74 77 73 74 73 74 74 71 74 70 74 68 76 67 79 66 78 64 74 63 74 63 75 62 74 60 71 56 72 52 70 50 70 49 68 47 67 44 60 44 53 44 50 45 50 46 51ZM19 37 20 38 18 39 18 38ZM30 22 30 34 31 35 33 36 34 35 38 39 39 40 39 42 36 37 33 37 31 35 24 34 23 34 23 35 20 36 21 33 18 36 19 36 18 37 14 40 9 42 15 38 16 36 14 37 13 36 11 37 11 35 10 35 8 34 8 32 9 31 12 30 12 29 9 29 6 28 9 26 12 27 7 24 8 23 9 23 11 22 16 20 18 21Z"/></svg>