<svg xmlns="http://www.w3.org/2000/svg" viewBox="0 0 100 100" fill="currentColor"><path d="M88 58 89 60 86 62 74 66 72 68 62 65 61 66 64 67 64 72 65 76 70 76 71 78 66 80 65 82 58 85 56 87 51 87 48 84 46 77 44 75 42 74 45 70 45 69 43 67 42 63 42 58 45 52 42 51 31 52 27 47 23 46 15 46 13 44 12 44 12 40 12 37 10 36 9 33 6 32 8 28 9 24 13 19 15 16 19 15 19 17 15 17 17 20 17 24 14 28 16 33 19 32 21 28 19 25 18 20 26 18 26 15 28 13 30 17 35 17 39 21 39 23 52 22 56 25 61 26 64 24 64 23 80 22 75 24 77 27 82 28 87 31 88 36 91 36 94 37 89 41 88 44 91 46 89 47 85 48 85 51 83 53Z"/></svg>